<svg xmlns="http://www.w3.org/2000/svg" xmlns:xlink="http://www.w3.org/1999/xlink" width="500" zoomAndPan="magnify" viewBox="0 0 375 374.999991" height="500" preserveAspectRatio="xMidYMid meet" version="1.0"><defs><clipPath id="7ebb4ed549"><path d="M 0 93 L 143 93 L 143 334.585938 L 0 334.585938 Z M 0 93 " clip-rule="nonzero"/></clipPath><clipPath id="4599f5b9e0"><path d="M 232 93 L 375 93 L 375 334.585938 L 232 334.585938 Z M 232 93 " clip-rule="nonzero"/></clipPath><clipPath id="82f3746ec1"><path d="M 85 27.835938 L 290 27.835938 L 290 327 L 85 327 Z M 85 27.835938 " clip-rule="nonzero"/></clipPath></defs><g clip-path="url(#7ebb4ed549)"><path fill="#0d3f6d" d="M 21.226562 263.789062 L 21.175781 95.390625 C 14.683594 94.222656 7.695312 93.53125 0.0234375 93.53125 L 0.0234375 282.101562 C 0.0234375 282.101562 84.996094 292.078125 142.179688 334.390625 C 115.757812 303.945312 76.289062 278.671875 21.226562 263.789062 " fill-opacity="1" fill-rule="nonzero"/></g><path fill="#7190b2" d="M 64.117188 226.949219 L 63.984375 70.101562 C 57.371094 66.882812 50.195312 64.054688 42.328125 61.773438 L 42.328125 250.347656 C 42.328125 250.347656 111.125 268.648438 158.335938 322.507812 C 136.660156 285.535156 105.96875 248.148438 64.117188 226.949219 " fill-opacity="1" fill-rule="nonzero"/><g clip-path="url(#4599f5b9e0)"><path fill="#0d3f6d" d="M 353.773438 263.789062 L 353.824219 95.390625 C 360.316406 94.222656 367.304688 93.53125 374.976562 93.53125 L 374.976562 282.101562 C 374.976562 282.101562 290.003906 292.078125 232.820312 334.390625 C 259.242188 303.945312 298.710938 278.671875 353.773438 263.789062 " fill-opacity="1" fill-rule="nonzero"/></g><path fill="#7190b2" d="M 310.882812 226.949219 L 311.015625 70.101562 C 317.628906 66.882812 324.804688 64.054688 332.671875 61.773438 L 332.671875 250.347656 C 332.671875 250.347656 263.875 268.648438 216.664062 322.507812 C 238.339844 285.535156 269.03125 248.148438 310.882812 226.949219 " fill-opacity="1" fill-rule="nonzero"/><g clip-path="url(#82f3746ec1)"><path fill="#388eff" d="M 187.5 134.203125 C 187.5 134.203125 159.421875 75.257812 85.136719 27.84375 L 85.136719 216.417969 C 85.136719 216.417969 140.714844 253.097656 184.101562 326.230469 L 184.101562 227.09375 C 178.246094 225.785156 173.902344 219.417969 173.902344 213.953125 C 173.902344 207.464844 179.992188 200.394531 187.5 200.394531 C 195.007812 200.394531 201.097656 207.464844 201.097656 213.953125 C 201.097656 219.417969 196.753906 225.785156 190.898438 227.09375 L 190.898438 326.230469 C 234.285156 253.09375 289.863281 216.417969 289.863281 216.417969 L 289.863281 27.84375 C 215.578125 75.257812 187.5 134.203125 187.5 134.203125 " fill-opacity="1" fill-rule="nonzero"/></g></svg>